<svg xmlns="http://www.w3.org/2000/svg" viewBox="0 0 1000 1000">
  <defs>
    <style>
      .cls-1 {
        fill: #fff;
      }
    </style>
  </defs>
  <title>Zeichenfläche 42</title>
  <g id="BG">
    <rect class="cls-1" width="1000" height="1000"/>
  </g>
  <g id="Logo">
    <g>
      <path d="M417.86845,390v65.13584c-5.823-.44383-10.279-.9054-15.64041-.9054-38.39979,0-63.85762,21.26812-63.85762,67.8698V637.01555H268.68981V393.60386h66.55608v32.133C352.21778,402.21408,380.80014,390,417.86845,390Z"/>
      <path d="M428.1297,515.31859C428.1297,442.01636,483.963,390,562.12951,390c50.45409,0,90.20311,22.15577,107.61883,61.9758l-54.0402,29.399c-12.95971-23.06118-32.15073-33.46445-54.0402-33.46445-35.27526,0-62.97,24.872-62.97,67.40823,0,42.51848,27.69471,67.40822,62.97,67.40822,21.88947,0,41.08049-9.95944,54.0402-33.4822l54.0402,29.86058c-17.41572,38.91463-57.16474,61.532-107.61883,61.532C483.963,640.63717,428.1297,588.60306,428.1297,515.31859Z"/>
      <path d="M690.73241,596.29012c0-26.239,19.20877-43.42389,43.31737-43.42389s43.31738,17.18492,43.31738,43.42389c0,25.79514-19.20877,44.347-43.31738,44.347S690.73241,622.08526,690.73241,596.29012Z"/>
    </g>
  </g>
</svg>
